<?xml version="1.0" standalone="no"?>
<!DOCTYPE svg PUBLIC "-//W3C//DTD SVG 20010904//EN"
 "http://www.w3.org/TR/2001/REC-SVG-20010904/DTD/svg10.dtd">
<svg version="1.0" xmlns="http://www.w3.org/2000/svg"
 width="242.000000pt" height="242.000000pt" viewBox="0 0 242.000000 242.000000"
 preserveAspectRatio="xMidYMid meet">
<metadata>
Created by potrace 1.11, written by Peter Selinger 2001-2013
</metadata>
<g transform="translate(0.000000,242.000000) scale(0.100000,-0.100000)"
fill="#000000" stroke="none">
<path d="M1954 1779 c-28 -10 -62 -59 -58 -84 3 -18 22 -38 48 -49 7 -3 7 -7
-2 -14 -10 -7 -12 -24 -6 -68 13 -118 11 -144 -18 -227 -41 -116 -48 -160 -49
-317 -1 -157 5 -176 71 -233 50 -43 121 -58 271 -60 124 -1 157 12 187 73 16
32 19 56 17 118 -4 82 -4 87 -36 257 -28 153 -33 164 -89 219 -28 27 -51 56
-51 65 -1 9 -3 26 -4 39 -1 12 1 40 5 62 9 47 -9 72 -35 50 -9 -7 -17 -11 -18
-9 -1 2 -8 11 -15 20 -10 14 -7 16 22 16 50 0 84 26 92 70 6 32 3 40 -20 60
-40 34 -90 31 -127 -8 -34 -36 -37 -71 -10 -98 19 -19 19 -19 -15 -14 -34 6
-94 -12 -94 -28 0 -15 -38 -10 -44 6 -4 11 1 15 18 15 36 0 76 37 76 70 0 56
-58 91 -116 69z"/>
<path d="M49 1438 c0 -29 0 -587 0 -610 1 -16 13 -18 100 -18 81 0 100 3 105
16 20 52 -4 69 -92 68 l-72 -2 0 99 0 98 38 3 c35 3 37 5 40 41 l3 37 -40 0
-41 0 0 104 0 103 63 0 c91 1 94 2 101 19 3 8 3 26 0 40 -6 23 -9 24 -105 24
-96 0 -99 -1 -100 -22z"/>
<path d="M1048 1443 c-13 -15 -43 -101 -53 -154 -2 -9 -8 -34 -14 -55 -17 -62
-13 -145 13 -251 40 -165 46 -173 121 -173 48 0 53 2 59 25 11 42 -6 59 -60
59 l-49 1 -27 100 c-33 125 -33 146 0 275 l27 105 35 1 c19 1 42 2 51 3 19 1
32 41 23 65 -9 23 -105 22 -126 -1z"/>
<path d="M1304 1405 c-4 -8 -3 -26 0 -40 5 -18 13 -25 31 -25 l25 0 0 -224 0
-225 -27 -3 c-25 -3 -28 -7 -28 -38 l0 -35 72 -3 c64 -3 72 -1 78 18 10 33 -3
60 -31 60 l-24 0 0 249 c0 137 -3 256 -6 265 -8 21 -82 22 -90 1z"/>
<path d="M367 1253 c-14 -28 -7 -119 18 -223 2 -8 11 -46 20 -85 28 -124 33
-135 55 -135 19 0 30 24 46 100 4 19 9 40 10 45 4 18 24 100 30 120 12 42 15
160 5 175 -10 13 -12 13 -21 0 -5 -8 -10 -31 -10 -50 0 -41 -52 -290 -61 -290
-3 0 -6 6 -6 13 0 6 -12 61 -27 120 -14 60 -26 126 -26 147 0 21 -3 45 -6 54
-6 17 -20 21 -27 9z"/>
<path d="M666 1245 c-10 -27 -7 -409 4 -425 20 -30 30 13 30 133 0 118 0 118
35 173 28 44 40 55 58 52 18 -2 23 -11 28 -45 6 -49 16 -64 29 -43 15 24 11
92 -8 130 -28 57 -85 54 -117 -6 l-20 -38 -5 39 c-5 41 -23 57 -34 30z"/>
<path d="M1587 1253 c-11 -10 -8 -416 3 -433 20 -30 30 13 30 128 0 93 3 119
20 150 50 95 91 109 101 35 11 -83 42 -62 36 24 -5 69 -28 103 -70 103 -27 0
-37 -7 -59 -43 -26 -40 -28 -40 -28 -15 0 46 -15 69 -33 51z"/>
</g>
</svg>
