<?xml version="1.0" encoding="utf-8"?>
<!-- Generator: Adobe Illustrator 22.0.1, SVG Export Plug-In . SVG Version: 6.00 Build 0)  -->
<svg version="1.1" id="Layer_1" xmlns="http://www.w3.org/2000/svg" xmlns:xlink="http://www.w3.org/1999/xlink" x="0px" y="0px"
	 viewBox="0 0 209.7 39.6" style="enable-background:new 0 0 209.7 39.6;" xml:space="preserve">
<g>
	<path d="M25.2,1C26,1,26.6,1,27,1.1c0.4,0.1,0.8,0.2,1.4,0.5c0.5,0.3,0.9,0.7,1.1,1.4c0.2,0.7,0.3,1.5,0.3,2.6c0,1.1-0.1,2-0.3,2.6
		c-0.2,0.7-0.6,1.1-1.1,1.4c-0.5,0.3-1,0.4-1.4,0.5c-0.4,0.1-1,0.1-1.8,0.1H9.2v5.2h10.2c0.8,0,1.4,0,1.8,0.1
		c0.4,0.1,0.9,0.2,1.4,0.5c0.9,0.5,1.4,1.9,1.4,4.1c0,2.4-0.7,3.9-2,4.3c-0.6,0.2-1.4,0.3-2.6,0.3H9.2v9.8c0,0.8,0,1.4-0.1,1.8
		c-0.1,0.4-0.2,0.8-0.5,1.4c-0.5,0.9-1.8,1.4-4.1,1.4c-2.4,0-3.8-0.7-4.3-2C0.1,36.5,0,35.7,0,34.4V5.6c0-1.8,0.3-3,1-3.6
		c0.7-0.6,1.9-1,3.7-1H25.2z"/>
	<path d="M42.3,31.4h14.1c1.1,0,2,0.1,2.5,0.4c0.5,0.3,0.9,0.7,1,1.2c0.2,0.6,0.3,1.3,0.3,2.2c0,0.9-0.1,1.7-0.3,2.2
		c-0.2,0.6-0.5,0.9-0.9,1.1c-0.7,0.3-1.6,0.5-2.7,0.5H37.7c-2.4,0-3.8-0.7-4.3-2c-0.2-0.6-0.3-1.4-0.3-2.6V5.6c0-0.8,0-1.4,0.1-1.8
		c0.1-0.4,0.2-0.9,0.5-1.4C34.2,1.5,35.5,1,37.7,1c2.4,0,3.9,0.6,4.3,1.9c0.2,0.6,0.3,1.5,0.3,2.7V31.4z"/>
	<path d="M63.6,5.6c0-0.8,0-1.4,0.1-1.8c0.1-0.4,0.2-0.9,0.5-1.4C64.7,1.5,66,1,68.2,1c2.4,0,3.9,0.6,4.3,1.9
		c0.2,0.6,0.3,1.5,0.3,2.7v28.9c0,0.8,0,1.4-0.1,1.8c-0.1,0.4-0.2,0.8-0.5,1.4c-0.5,0.9-1.8,1.4-4.1,1.4c-2.4,0-3.8-0.7-4.3-2
		c-0.2-0.6-0.3-1.4-0.3-2.6V5.6z"/>
	<path d="M100.4,19.8l10.4,11.5c1.2,1.3,1.8,2.4,1.8,3.3c0,0.9-0.7,2-2,3.2c-1.3,1.2-2.5,1.8-3.4,1.8c-0.9,0-2-0.7-3.2-2.1
		l-9.9-11.3l-9.9,11.3c-1.2,1.4-2.3,2.1-3.2,2.1c-0.9,0-2-0.6-3.4-1.8c-1.4-1.2-2.1-2.3-2.1-3.1c0-0.9,0.6-2,1.8-3.3l10.4-11.5
		L77.5,8.3C76.3,7,75.7,5.9,75.7,5c0-0.9,0.7-2,2-3.2C79,0.6,80.2,0,81.1,0s2,0.7,3.2,2.1l9.9,11.3L104,2.1c1.2-1.4,2.3-2.1,3.2-2.1
		c0.9,0,2,0.6,3.4,1.8c1.4,1.2,2,2.3,2,3.2s-0.6,2-1.8,3.3L100.4,19.8z"/>
	<path d="M155.9,2.4c0.3,0.5,0.4,1,0.5,1.4c0.1,0.4,0.1,1,0.1,1.8v28.8c0,2.4-0.7,3.8-2,4.2c-0.7,0.2-1.5,0.3-2.5,0.3
		c-1,0-1.8-0.1-2.4-0.3c-0.6-0.2-1-0.4-1.4-0.6c-0.3-0.2-0.6-0.6-0.7-1c-0.2-0.6-0.3-1.5-0.3-2.7V17c-0.9,1.1-2.1,2.8-3.8,5.1
		c-1.7,2.3-2.7,3.8-3.2,4.4c-0.5,0.6-0.8,1-0.9,1.2c-0.2,0.2-0.6,0.5-1.3,0.9c-0.7,0.4-1.4,0.6-2.2,0.6c-0.8,0-1.5-0.2-2.1-0.5
		c-0.6-0.4-1.1-0.7-1.4-1.1l-0.4-0.6c-0.7-0.9-2.1-2.7-4.1-5.5c-2-2.8-3.2-4.3-3.3-4.5v17.5c0,0.8,0,1.4-0.1,1.8
		c-0.1,0.4-0.2,0.8-0.5,1.3c-0.5,0.9-1.9,1.4-4.1,1.4c-2.1,0-3.4-0.5-3.9-1.4c-0.3-0.5-0.4-0.9-0.5-1.4c-0.1-0.4-0.1-1-0.1-1.9V5.6
		c0-0.8,0-1.4,0.1-1.8c0.1-0.4,0.2-0.9,0.5-1.4c0.5-0.9,1.9-1.4,4.1-1.4c0.9,0,1.7,0.1,2.4,0.3c0.7,0.2,1.1,0.5,1.3,0.7l0.3,0.3
		l11.8,15.5c5.9-7.8,9.8-12.9,11.8-15.4c0.6-0.9,2-1.4,4.2-1.4C154.1,1,155.4,1.5,155.9,2.4z"/>
	<path d="M160.7,5.6c0-0.8,0-1.4,0.1-1.8c0.1-0.4,0.2-0.9,0.5-1.4c0.5-0.9,1.8-1.4,4.1-1.4c2.4,0,3.9,0.6,4.3,1.9
		c0.2,0.6,0.3,1.5,0.3,2.7v28.9c0,0.8,0,1.4-0.1,1.8c-0.1,0.4-0.2,0.8-0.5,1.4c-0.5,0.9-1.8,1.4-4.1,1.4c-2.4,0-3.8-0.7-4.3-2
		c-0.2-0.6-0.3-1.4-0.3-2.6V5.6z"/>
	<path d="M197.4,19.8l10.4,11.5c1.2,1.3,1.8,2.4,1.8,3.3c0,0.9-0.7,2-2,3.2c-1.3,1.2-2.5,1.8-3.4,1.8c-0.9,0-2-0.7-3.2-2.1
		l-9.9-11.3l-9.9,11.3c-1.2,1.4-2.3,2.1-3.2,2.1c-0.9,0-2-0.6-3.4-1.8c-1.4-1.2-2.1-2.3-2.1-3.1c0-0.9,0.6-2,1.8-3.3L185,19.8
		L174.5,8.3c-1.2-1.3-1.8-2.4-1.8-3.3c0-0.9,0.7-2,2-3.2c1.4-1.2,2.5-1.8,3.4-1.8c0.9,0,2,0.7,3.2,2.1l9.9,11.3l9.9-11.3
		c1.2-1.4,2.3-2.1,3.2-2.1c0.9,0,2,0.6,3.4,1.8c1.4,1.2,2,2.3,2,3.2s-0.6,2-1.8,3.3L197.4,19.8z"/>
</g>
</svg>
