<svg xmlns="http://www.w3.org/2000/svg" viewBox="0 0 209.65 39.59"><title>readme-logos</title><g id="Logos"><path d="M25.2,1A15.87,15.87,0,0,1,27,1.06a4,4,0,0,1,1.35.5A2.29,2.29,0,0,1,29.41,3a9,9,0,0,1,.31,2.65,9,9,0,0,1-.31,2.65,2.19,2.19,0,0,1-1.09,1.38,4.69,4.69,0,0,1-1.38.47,16.54,16.54,0,0,1-1.84.07H9.2v5.25H19.43a16.19,16.19,0,0,1,1.85.08,4.31,4.31,0,0,1,1.37.49Q24,16.78,24,20.11c0,2.42-.65,3.86-2,4.31a9.83,9.83,0,0,1-2.65.26H9.2V34.5a15.34,15.34,0,0,1-.08,1.82,4.3,4.3,0,0,1-.49,1.35c-.49.93-1.84,1.4-4.06,1.4-2.42,0-3.84-.65-4.26-2A8.15,8.15,0,0,1,0,34.45V5.56C0,3.79.33,2.59,1,2s1.9-1,3.74-1Z"/><path d="M42.29,31.38H56.43a5.9,5.9,0,0,1,2.49.39A2,2,0,0,1,60,33a7.77,7.77,0,0,1,.26,2.21A7.72,7.72,0,0,1,60,37.41a1.78,1.78,0,0,1-.88,1.14,5.83,5.83,0,0,1-2.71.52H37.67c-2.43,0-3.85-.65-4.26-2a8.15,8.15,0,0,1-.31-2.65V5.56a13.3,13.3,0,0,1,.08-1.79,4,4,0,0,1,.49-1.38c.48-.94,1.83-1.4,4-1.4,2.43,0,3.86.64,4.31,1.92a10,10,0,0,1,.26,2.7Z"/><path d="M63.6,5.56a15.75,15.75,0,0,1,.07-1.79,4.32,4.32,0,0,1,.5-1.38c.48-.94,1.83-1.4,4-1.4,2.43,0,3.86.64,4.31,1.92a10,10,0,0,1,.26,2.7V34.5a15.9,15.9,0,0,1-.07,1.82,4.36,4.36,0,0,1-.5,1.35c-.48.93-1.83,1.4-4,1.4-2.43,0-3.85-.65-4.26-2a8.15,8.15,0,0,1-.31-2.65Z"/><path d="M100.38,19.8l10.45,11.48c1.17,1.32,1.76,2.42,1.76,3.32s-.66,2-2,3.17-2.46,1.82-3.37,1.82-2-.69-3.2-2.08L94.15,26.19,84.28,37.51C83,38.9,82,39.59,81.08,39.59s-2-.61-3.38-1.84-2-2.28-2-3.15.61-2,1.82-3.32L87.91,19.8,77.47,8.31C76.26,7,75.65,5.94,75.65,5s.68-2,2-3.2S80.16,0,81.08,0s2,.69,3.2,2.08L94.15,13.4,104,2.08C105.27.69,106.33,0,107.22,0s2,.61,3.35,1.82,2,2.28,2,3.22a5.23,5.23,0,0,1-1.76,3.27Z"/><path d="M155.93,2.44a4.28,4.28,0,0,1,.49,1.4,16.34,16.34,0,0,1,.08,1.82V34.5q0,3.59-2,4.21A8.36,8.36,0,0,1,152,39a8.89,8.89,0,0,1-2.39-.26,4.06,4.06,0,0,1-1.35-.62,2.33,2.33,0,0,1-.73-1,10.48,10.48,0,0,1-.26-2.7V17q-1.31,1.61-3.79,5.12t-3.17,4.39l-.94,1.22a4.73,4.73,0,0,1-1.27.94,4.39,4.39,0,0,1-4.31.05,4.92,4.92,0,0,1-1.38-1.07l-.41-.57q-1-1.3-4.11-5.53c-2-2.83-3.15-4.34-3.32-4.55V34.5a15.36,15.36,0,0,1-.08,1.79,3.67,3.67,0,0,1-.5,1.33c-.52.93-1.87,1.4-4,1.4s-3.43-.47-4-1.4a3.65,3.65,0,0,1-.49-1.35,16.86,16.86,0,0,1-.08-1.87V5.56a15.24,15.24,0,0,1,.08-1.79A4,4,0,0,1,116,2.39q.78-1.35,4-1.35a7.51,7.51,0,0,1,2.42.34,3.1,3.1,0,0,1,1.33.7l.31.31,11.79,15.48q8.84-11.69,11.8-15.43c.59-.93,2-1.4,4.18-1.4S155.44,1.51,155.93,2.44Z"/><path d="M160.65,5.56a15.24,15.24,0,0,1,.08-1.79,4.09,4.09,0,0,1,.5-1.38c.48-.94,1.83-1.4,4.05-1.4q3.63,0,4.31,1.92a10.48,10.48,0,0,1,.26,2.7V34.5a15.34,15.34,0,0,1-.08,1.82,4.07,4.07,0,0,1-.49,1.35c-.49.93-1.84,1.4-4.05,1.4-2.43,0-3.85-.65-4.26-2a8.1,8.1,0,0,1-.32-2.65Z"/><path d="M197.44,19.8l10.44,11.48c1.18,1.32,1.77,2.42,1.77,3.32s-.67,2-2,3.17-2.46,1.82-3.38,1.82-2-.69-3.19-2.08l-9.87-11.32-9.88,11.32c-1.24,1.39-2.31,2.08-3.19,2.08s-2-.61-3.38-1.84-2-2.28-2-3.15.6-2,1.82-3.32L185,19.8,174.53,8.31C173.31,7,172.71,5.94,172.71,5s.67-2,2-3.2S177.22,0,178.14,0s2,.69,3.19,2.08l9.88,11.32,9.87-11.32C202.32.69,203.39,0,204.27,0s2,.61,3.35,1.82,2,2.28,2,3.22a5.21,5.21,0,0,1-1.77,3.27Z"/></g></svg>